<svg xmlns="http://www.w3.org/2000/svg" width="1920" height="1080" viewBox="0 0 1920 1080">
  <!-- Background -->
  <rect width="1920" height="1080" fill="#FFFFFF"/>

  <!-- Left vertical accent stripe -->
  <rect x="0" y="0" width="12" height="1080" fill="#2563EB"/>

  <!-- Top horizontal accent line -->
  <rect x="12" y="0" width="1908" height="4" fill="#2563EB"/>

  <!-- Bottom horizontal accent line -->
  <rect x="12" y="1076" width="1908" height="4" fill="#0A0A0A"/>

  <!-- Left blue panel -->
  <rect x="12" y="0" width="540" height="1080" fill="#2563EB"/>

  <!-- F letterform in panel -->
  <!-- Vertical bar -->
  <rect x="80" y="160" width="52" height="340" fill="#FFFFFF"/>
  <!-- Top horizontal bar -->
  <rect x="80" y="160" width="240" height="52" fill="#FFFFFF"/>
  <!-- Middle horizontal bar -->
  <rect x="80" y="314" width="180" height="46" fill="#FFFFFF"/>

  <!-- Circuit decoration in blue panel -->
  <line x1="400" y1="180" x2="500" y2="180" stroke="#FFFFFF" stroke-width="2" opacity="0.25"/>
  <line x1="500" y1="180" x2="500" y2="240" stroke="#FFFFFF" stroke-width="2" opacity="0.25"/>
  <circle cx="500" cy="240" r="6" fill="#FFFFFF" opacity="0.25"/>

  <line x1="380" y1="560" x2="500" y2="560" stroke="#FFFFFF" stroke-width="2" opacity="0.2"/>
  <line x1="500" y1="560" x2="500" y2="500" stroke="#FFFFFF" stroke-width="2" opacity="0.2"/>
  <circle cx="500" cy="500" r="6" fill="#FFFFFF" opacity="0.2"/>

  <!-- Gear motif -->
  <circle cx="460" cy="700" r="50" fill="none" stroke="#FFFFFF" stroke-width="3" opacity="0.15"/>
  <circle cx="460" cy="700" r="28" fill="none" stroke="#FFFFFF" stroke-width="2" opacity="0.15"/>
  <circle cx="460" cy="700" r="10" fill="#FFFFFF" opacity="0.12"/>
  <rect x="454" y="644" width="12" height="16" fill="#FFFFFF" opacity="0.12" rx="2"/>
  <rect x="454" y="740" width="12" height="16" fill="#FFFFFF" opacity="0.12" rx="2"/>
  <rect x="404" y="694" width="16" height="12" fill="#FFFFFF" opacity="0.12" rx="2"/>
  <rect x="500" y="694" width="16" height="12" fill="#FFFFFF" opacity="0.12" rx="2"/>

  <!-- Anvil/hammer shape in panel -->
  <rect x="80" y="780" width="170" height="28" fill="#FFFFFF" opacity="0.3" rx="3"/>
  <rect x="90" y="748" width="150" height="36" fill="#FFFFFF" opacity="0.3" rx="3"/>
  <rect x="152" y="698" width="18" height="54" fill="#FFFFFF" opacity="0.3" rx="3"/>
  <rect x="120" y="678" width="84" height="26" fill="#FFFFFF" opacity="0.5" rx="3"/>

  <!-- Panel label at bottom -->
  <text x="276" y="1020" font-family="-apple-system, 'Helvetica Neue', Arial, sans-serif"
        font-weight="400" font-size="14" fill="#FFFFFF" text-anchor="middle" opacity="0.7" letter-spacing="3">LLM SECURITY · POLICY FORGE</text>

  <!-- ===== RIGHT CONTENT AREA ===== -->

  <!-- FORGE wordmark -->
  <text x="600" y="280" font-family="-apple-system, 'Helvetica Neue', Arial, sans-serif"
        font-weight="900" font-size="200" fill="#0A0A0A" letter-spacing="-4">FORGE</text>

  <!-- Accent underline under FORGE -->
  <rect x="600" y="295" width="840" height="6" fill="#2563EB"/>

  <!-- Tagline -->
  <text x="600" y="370" font-family="-apple-system, 'Helvetica Neue', Arial, sans-serif"
        font-weight="400" font-size="28" fill="#5A5A5A" letter-spacing="1">Scan any LLM codebase. Generate enterprise governance policies. IBM Bob-powered.</text>

  <!-- Key metrics row -->
  <!-- Metric 1 -->
  <rect x="600" y="440" width="300" height="120" fill="#F8F8F8" rx="4"/>
  <rect x="600" y="440" width="6" height="120" fill="#ED1C24" rx="2"/>
  <text x="720" y="500" font-family="-apple-system, 'Helvetica Neue', Arial, sans-serif"
        font-weight="900" font-size="52" fill="#ED1C24" text-anchor="middle">25/25</text>
  <text x="720" y="535" font-family="-apple-system, 'Helvetica Neue', Arial, sans-serif"
        font-weight="400" font-size="16" fill="#5A5A5A" text-anchor="middle">Tests PASS</text>

  <!-- Metric 2 -->
  <rect x="920" y="440" width="300" height="120" fill="#F8F8F8" rx="4"/>
  <rect x="920" y="440" width="6" height="120" fill="#2563EB" rx="2"/>
  <text x="1070" y="500" font-family="-apple-system, 'Helvetica Neue', Arial, sans-serif"
        font-weight="900" font-size="52" fill="#2563EB" text-anchor="middle">3 repos</text>
  <text x="1070" y="535" font-family="-apple-system, 'Helvetica Neue', Arial, sans-serif"
        font-weight="400" font-size="16" fill="#5A5A5A" text-anchor="middle">Live Demo</text>

  <!-- Metric 3 -->
  <rect x="1240" y="440" width="300" height="120" fill="#F8F8F8" rx="4"/>
  <rect x="1240" y="440" width="6" height="120" fill="#0A0A0A" rx="2"/>
  <text x="1390" y="500" font-family="-apple-system, 'Helvetica Neue', Arial, sans-serif"
        font-weight="900" font-size="52" fill="#0A0A0A" text-anchor="middle">&lt;30ms</text>
  <text x="1390" y="535" font-family="-apple-system, 'Helvetica Neue', Arial, sans-serif"
        font-weight="400" font-size="16" fill="#5A5A5A" text-anchor="middle">Scan Latency</text>

  <!-- Metric 4 -->
  <rect x="1560" y="440" width="300" height="120" fill="#F8F8F8" rx="4"/>
  <rect x="1560" y="440" width="6" height="120" fill="#2563EB" rx="2"/>
  <text x="1710" y="492" font-family="-apple-system, 'Helvetica Neue', Arial, sans-serif"
        font-weight="900" font-size="38" fill="#2563EB" text-anchor="middle">6 OWASP</text>
  <text x="1710" y="530" font-family="-apple-system, 'Helvetica Neue', Arial, sans-serif"
        font-weight="400" font-size="16" fill="#5A5A5A" text-anchor="middle">LLM Categories</text>

  <!-- Pipeline diagram -->
  <!-- Section label -->
  <text x="600" y="620" font-family="-apple-system, 'Helvetica Neue', Arial, sans-serif"
        font-weight="700" font-size="16" fill="#5A5A5A" letter-spacing="3">PIPELINE</text>
  <rect x="600" y="628" width="60" height="2" fill="#2563EB"/>

  <!-- Pipeline boxes -->
  <!-- Box 1: Repo -->
  <rect x="600" y="650" width="200" height="80" fill="#0A0A0A" rx="4"/>
  <text x="700" y="686" font-family="-apple-system, 'Helvetica Neue', Arial, sans-serif"
        font-weight="700" font-size="18" fill="#FFFFFF" text-anchor="middle">Git Repo</text>
  <text x="700" y="710" font-family="-apple-system, 'Helvetica Neue', Arial, sans-serif"
        font-weight="400" font-size="13" fill="#AAAAAA" text-anchor="middle">Any LLM project</text>

  <!-- Arrow -->
  <line x1="800" y1="690" x2="840" y2="690" stroke="#2563EB" stroke-width="3"/>
  <polygon points="840,683 855,690 840,697" fill="#2563EB"/>

  <!-- Box 2: Bob scan -->
  <rect x="855" y="650" width="200" height="80" fill="#2563EB" rx="4"/>
  <text x="955" y="686" font-family="-apple-system, 'Helvetica Neue', Arial, sans-serif"
        font-weight="700" font-size="18" fill="#FFFFFF" text-anchor="middle">Bob Scan</text>
  <text x="955" y="710" font-family="-apple-system, 'Helvetica Neue', Arial, sans-serif"
        font-weight="400" font-size="13" fill="#BFD5FF" text-anchor="middle">WATSON_BOB_API_KEY</text>

  <!-- Arrow -->
  <line x1="1055" y1="690" x2="1095" y2="690" stroke="#2563EB" stroke-width="3"/>
  <polygon points="1095,683 1110,690 1095,697" fill="#2563EB"/>

  <!-- Box 3: OWASP -->
  <rect x="1110" y="650" width="200" height="80" fill="#0A0A0A" rx="4"/>
  <text x="1210" y="682" font-family="-apple-system, 'Helvetica Neue', Arial, sans-serif"
        font-weight="700" font-size="18" fill="#FFFFFF" text-anchor="middle">OWASP</text>
  <text x="1210" y="702" font-family="-apple-system, 'Helvetica Neue', Arial, sans-serif"
        font-weight="700" font-size="18" fill="#ED1C24" text-anchor="middle">Detection</text>
  <text x="1210" y="722" font-family="-apple-system, 'Helvetica Neue', Arial, sans-serif"
        font-weight="400" font-size="12" fill="#AAAAAA" text-anchor="middle">LLM01-LLM08</text>

  <!-- Arrow -->
  <line x1="1310" y1="690" x2="1350" y2="690" stroke="#2563EB" stroke-width="3"/>
  <polygon points="1350,683 1365,690 1350,697" fill="#2563EB"/>

  <!-- Box 4: YAML policy -->
  <rect x="1365" y="650" width="200" height="80" fill="#2563EB" rx="4"/>
  <text x="1465" y="686" font-family="-apple-system, 'Helvetica Neue', Arial, sans-serif"
        font-weight="700" font-size="18" fill="#FFFFFF" text-anchor="middle">YAML Policy</text>
  <text x="1465" y="710" font-family="-apple-system, 'Helvetica Neue', Arial, sans-serif"
        font-weight="400" font-size="13" fill="#BFD5FF" text-anchor="middle">Lobster Trap ready</text>

  <!-- Arrow -->
  <line x1="1565" y1="690" x2="1605" y2="690" stroke="#2563EB" stroke-width="3"/>
  <polygon points="1605,683 1620,690 1605,697" fill="#2563EB"/>

  <!-- Box 5: BobShell -->
  <rect x="1620" y="650" width="200" height="80" fill="#0A0A0A" rx="4"/>
  <text x="1720" y="682" font-family="-apple-system, 'Helvetica Neue', Arial, sans-serif"
        font-weight="700" font-size="18" fill="#FFFFFF" text-anchor="middle">BobShell</text>
  <text x="1720" y="702" font-family="-apple-system, 'Helvetica Neue', Arial, sans-serif"
        font-weight="700" font-size="14" fill="#ED1C24" text-anchor="middle">Audit Chain</text>
  <text x="1720" y="722" font-family="-apple-system, 'Helvetica Neue', Arial, sans-serif"
        font-weight="400" font-size="12" fill="#AAAAAA" text-anchor="middle">SHA-256 verified</text>

  <!-- Partner logos row -->
  <text x="600" y="800" font-family="-apple-system, 'Helvetica Neue', Arial, sans-serif"
        font-weight="700" font-size="14" fill="#5A5A5A" letter-spacing="3">PARTNERS &amp; SPONSORS</text>
  <rect x="600" y="808" width="50" height="2" fill="#2563EB"/>

  <!-- IBM box -->
  <rect x="600" y="826" width="180" height="54" fill="#0A0A0A" rx="3"/>
  <text x="690" y="853" font-family="-apple-system, 'Helvetica Neue', Arial, sans-serif"
        font-weight="900" font-size="22" fill="#FFFFFF" text-anchor="middle" letter-spacing="4">IBM</text>
  <text x="690" y="871" font-family="-apple-system, 'Helvetica Neue', Arial, sans-serif"
        font-weight="400" font-size="11" fill="#AAAAAA" text-anchor="middle">watsonx / Bob API</text>

  <!-- lablab box -->
  <rect x="800" y="826" width="180" height="54" fill="#2563EB" rx="3"/>
  <text x="890" y="853" font-family="-apple-system, 'Helvetica Neue', Arial, sans-serif"
        font-weight="900" font-size="16" fill="#FFFFFF" text-anchor="middle">lablab.ai</text>
  <text x="890" y="871" font-family="-apple-system, 'Helvetica Neue', Arial, sans-serif"
        font-weight="400" font-size="11" fill="#BFD5FF" text-anchor="middle">hackathon host</text>

  <!-- SOUF box -->
  <rect x="1000" y="826" width="180" height="54" fill="#F8F8F8" rx="3"/>
  <rect x="1000" y="826" width="4" height="54" fill="#ED1C24"/>
  <text x="1090" y="853" font-family="-apple-system, 'Helvetica Neue', Arial, sans-serif"
        font-weight="900" font-size="16" fill="#0A0A0A" text-anchor="middle">SOUF AI</text>
  <text x="1090" y="871" font-family="-apple-system, 'Helvetica Neue', Arial, sans-serif"
        font-weight="400" font-size="11" fill="#5A5A5A" text-anchor="middle">policy target</text>

  <!-- Veea box -->
  <rect x="1200" y="826" width="180" height="54" fill="#F8F8F8" rx="3"/>
  <rect x="1200" y="826" width="4" height="54" fill="#2563EB"/>
  <text x="1290" y="848" font-family="-apple-system, 'Helvetica Neue', Arial, sans-serif"
        font-weight="900" font-size="16" fill="#0A0A0A" text-anchor="middle">Veea</text>
  <text x="1290" y="866" font-family="-apple-system, 'Helvetica Neue', Arial, sans-serif"
        font-weight="400" font-size="11" fill="#5A5A5A" text-anchor="middle">Lobster Trap runtime</text>

  <!-- Bottom bar -->
  <rect x="600" y="980" width="1260" height="2" fill="#F0F0F0"/>
  <text x="600" y="1010" font-family="-apple-system, 'Helvetica Neue', Arial, sans-serif"
        font-weight="700" font-size="15" fill="#2563EB">FORGE</text>
  <text x="680" y="1010" font-family="-apple-system, 'Helvetica Neue', Arial, sans-serif"
        font-weight="400" font-size="15" fill="#5A5A5A">— IBM Bob Hackathon 2026 · $10K · github.com/SRKRZ23/forge</text>
  <text x="1860" y="1010" font-family="-apple-system, 'Helvetica Neue', Arial, sans-serif"
        font-weight="700" font-size="15" fill="#0A0A0A" text-anchor="end">razikovsardor1@gmail.com</text>
</svg>
