<svg xmlns="http://www.w3.org/2000/svg" width="1920" height="1080" viewBox="0 0 1920 1080">
  <!-- Background -->
  <rect width="1920" height="1080" fill="#FFFFFF"/>
  <!-- Left stripe -->
  <rect x="0" y="0" width="12" height="1080" fill="#2563EB"/>
  <!-- Top line -->
  <rect x="12" y="0" width="1908" height="4" fill="#2563EB"/>
  <!-- Bottom line -->
  <rect x="12" y="1076" width="1908" height="4" fill="#0A0A0A"/>

  <!-- IBM Bob logo box top-left -->
  <rect x="60" y="20" width="120" height="40" fill="#ED1C24" rx="4"/>
  <text x="120" y="46" font-family="Arial, Helvetica, sans-serif" font-size="18" font-weight="700" fill="#FFFFFF" text-anchor="middle">IBM Bob</text>

  <!-- lablab.ai logo box top-right -->
  <rect x="1740" y="20" width="120" height="40" fill="#0A0A0A" rx="4"/>
  <text x="1800" y="46" font-family="Arial, Helvetica, sans-serif" font-size="18" font-weight="700" fill="#FFFFFF" text-anchor="middle">lablab.ai</text>

  <!-- Slide number -->
  <text x="1860" y="50" font-family="Arial, Helvetica, sans-serif" font-size="18" fill="#5A5A5A" text-anchor="end">05 / 08</text>

  <!-- Context label -->
  <text x="960" y="90" font-family="Arial, Helvetica, sans-serif" font-size="14" font-weight="700" fill="#2563EB" text-anchor="middle" letter-spacing="3">3-REPO LIVE DEMO · ALL VERIFIED · LATENCY MEASURED · BOBSHELL CHAINS VERIFIED</text>

  <!-- Title -->
  <text x="960" y="152" font-family="Arial Black, Arial, Helvetica, sans-serif" font-size="52" font-weight="900" fill="#0A0A0A" text-anchor="middle">It works. Here are the numbers.</text>

  <!-- Divider -->
  <rect x="60" y="172" width="1800" height="4" fill="#2563EB" rx="1"/>

  <!-- === TABLE HEADER === -->
  <rect x="60" y="190" width="1800" height="56" fill="#0A0A0A" rx="4"/>
  <!-- Table header text -->
  <text x="184" y="224" font-family="Arial, Helvetica, sans-serif" font-size="16" font-weight="700" fill="#FFFFFF" text-anchor="middle" letter-spacing="1">REPO</text>
  <text x="480" y="224" font-family="Arial, Helvetica, sans-serif" font-size="16" font-weight="700" fill="#FFFFFF" text-anchor="middle" letter-spacing="1">FILES SCANNED</text>
  <text x="720" y="224" font-family="Arial, Helvetica, sans-serif" font-size="16" font-weight="700" fill="#FFFFFF" text-anchor="middle" letter-spacing="1">FINDINGS</text>
  <text x="1020" y="224" font-family="Arial, Helvetica, sans-serif" font-size="16" font-weight="700" fill="#FFFFFF" text-anchor="middle" letter-spacing="1">OWASP TAGS</text>
  <text x="1380" y="224" font-family="Arial, Helvetica, sans-serif" font-size="16" font-weight="700" fill="#FFFFFF" text-anchor="middle" letter-spacing="1">BOBSHELL</text>
  <text x="1680" y="224" font-family="Arial, Helvetica, sans-serif" font-size="16" font-weight="700" fill="#FFFFFF" text-anchor="middle" letter-spacing="1">LATENCY</text>
  <!-- Column dividers in header -->
  <rect x="340" y="194" width="2" height="48" fill="#2563EB"/>
  <rect x="600" y="194" width="2" height="48" fill="#2563EB"/>
  <rect x="840" y="194" width="2" height="48" fill="#2563EB"/>
  <rect x="1180" y="194" width="2" height="48" fill="#2563EB"/>
  <rect x="1560" y="194" width="2" height="48" fill="#2563EB"/>

  <!-- === ROW 1: ATLAS === -->
  <rect x="60" y="246" width="1800" height="110" fill="#F8F8F8" rx="2" stroke="#E0E0E0" stroke-width="1"/>
  <rect x="60" y="246" width="7" height="110" fill="#2563EB"/>
  <!-- Repo name -->
  <text x="184" y="302" font-family="Arial Black, Arial, Helvetica, sans-serif" font-size="28" font-weight="900" fill="#2563EB" text-anchor="middle">ATLAS</text>
  <text x="184" y="326" font-family="Courier New, monospace" font-size="11" fill="#5A5A5A" text-anchor="middle">AI Agent Olympics</text>
  <!-- Files -->
  <text x="480" y="308" font-family="Arial Black, Arial, Helvetica, sans-serif" font-size="48" font-weight="900" fill="#0A0A0A" text-anchor="middle">15</text>
  <!-- Findings -->
  <text x="720" y="308" font-family="Arial Black, Arial, Helvetica, sans-serif" font-size="48" font-weight="900" fill="#ED1C24" text-anchor="middle">7</text>
  <!-- OWASP tags -->
  <rect x="868" y="274" width="90" height="30" fill="#ED1C24" rx="3"/>
  <text x="913" y="294" font-family="Courier New, monospace" font-size="13" font-weight="700" fill="#FFFFFF" text-anchor="middle">LLM01</text>
  <rect x="968" y="274" width="90" height="30" fill="#2563EB" rx="3"/>
  <text x="1013" y="294" font-family="Courier New, monospace" font-size="13" font-weight="700" fill="#FFFFFF" text-anchor="middle">LLM02</text>
  <!-- BobShell -->
  <rect x="1248" y="274" width="220" height="38" fill="#22C55E" rx="4"/>
  <text x="1358" y="298" font-family="Arial, Helvetica, sans-serif" font-size="16" font-weight="700" fill="#FFFFFF" text-anchor="middle">✓ verified</text>
  <text x="1358" y="334" font-family="Courier New, monospace" font-size="11" fill="#5A5A5A" text-anchor="middle">chain_verified: True</text>
  <!-- Latency -->
  <text x="1680" y="296" font-family="Arial Black, Arial, Helvetica, sans-serif" font-size="40" font-weight="900" fill="#2563EB" text-anchor="middle">19ms</text>
  <text x="1680" y="330" font-family="Courier New, monospace" font-size="12" fill="#5A5A5A" text-anchor="middle">fastest run</text>
  <!-- Row col dividers -->
  <rect x="340" y="246" width="2" height="110" fill="#E0E0E0"/>
  <rect x="600" y="246" width="2" height="110" fill="#E0E0E0"/>
  <rect x="840" y="246" width="2" height="110" fill="#E0E0E0"/>
  <rect x="1180" y="246" width="2" height="110" fill="#E0E0E0"/>
  <rect x="1560" y="246" width="2" height="110" fill="#E0E0E0"/>

  <!-- === ROW 2: CITADEL === -->
  <rect x="60" y="362" width="1800" height="110" fill="#FFFFFF" rx="2" stroke="#E0E0E0" stroke-width="1"/>
  <rect x="60" y="362" width="7" height="110" fill="#ED1C24"/>
  <text x="184" y="418" font-family="Arial Black, Arial, Helvetica, sans-serif" font-size="28" font-weight="900" fill="#0A0A0A" text-anchor="middle">CITADEL</text>
  <text x="184" y="442" font-family="Courier New, monospace" font-size="11" fill="#5A5A5A" text-anchor="middle">AI Reliability Bench</text>
  <text x="480" y="424" font-family="Arial Black, Arial, Helvetica, sans-serif" font-size="48" font-weight="900" fill="#0A0A0A" text-anchor="middle">27</text>
  <text x="720" y="424" font-family="Arial Black, Arial, Helvetica, sans-serif" font-size="48" font-weight="900" fill="#ED1C24" text-anchor="middle">6</text>
  <rect x="868" y="390" width="90" height="30" fill="#ED1C24" rx="3"/>
  <text x="913" y="410" font-family="Courier New, monospace" font-size="13" font-weight="700" fill="#FFFFFF" text-anchor="middle">LLM01</text>
  <rect x="968" y="390" width="90" height="30" fill="#7C3AED" rx="3"/>
  <text x="1013" y="410" font-family="Courier New, monospace" font-size="13" font-weight="700" fill="#FFFFFF" text-anchor="middle">LLM08</text>
  <rect x="1248" y="390" width="220" height="38" fill="#22C55E" rx="4"/>
  <text x="1358" y="414" font-family="Arial, Helvetica, sans-serif" font-size="16" font-weight="700" fill="#FFFFFF" text-anchor="middle">✓ verified</text>
  <text x="1358" y="450" font-family="Courier New, monospace" font-size="11" fill="#5A5A5A" text-anchor="middle">chain_verified: True</text>
  <text x="1680" y="412" font-family="Arial Black, Arial, Helvetica, sans-serif" font-size="40" font-weight="900" fill="#2563EB" text-anchor="middle">27ms</text>
  <text x="1680" y="446" font-family="Courier New, monospace" font-size="12" fill="#5A5A5A" text-anchor="middle">most files</text>
  <rect x="340" y="362" width="2" height="110" fill="#E0E0E0"/>
  <rect x="600" y="362" width="2" height="110" fill="#E0E0E0"/>
  <rect x="840" y="362" width="2" height="110" fill="#E0E0E0"/>
  <rect x="1180" y="362" width="2" height="110" fill="#E0E0E0"/>
  <rect x="1560" y="362" width="2" height="110" fill="#E0E0E0"/>

  <!-- === ROW 3: FORGE (self-scan) — HIGHLIGHTED === -->
  <rect x="60" y="478" width="1800" height="130" fill="#EFF6FF" rx="4" stroke="#2563EB" stroke-width="2"/>
  <rect x="60" y="478" width="7" height="130" fill="#2563EB"/>
  <text x="184" y="534" font-family="Arial Black, Arial, Helvetica, sans-serif" font-size="28" font-weight="900" fill="#2563EB" text-anchor="middle">FORGE</text>
  <text x="184" y="558" font-family="Courier New, monospace" font-size="11" fill="#2563EB" text-anchor="middle">self-scan · 10 findings</text>
  <text x="480" y="544" font-family="Arial Black, Arial, Helvetica, sans-serif" font-size="48" font-weight="900" fill="#0A0A0A" text-anchor="middle">9</text>
  <text x="720" y="544" font-family="Arial Black, Arial, Helvetica, sans-serif" font-size="56" font-weight="900" fill="#2563EB" text-anchor="middle">10</text>
  <!-- 5 OWASP tags -->
  <rect x="852" y="492" width="82" height="28" fill="#ED1C24" rx="3"/>
  <text x="893" y="511" font-family="Courier New, monospace" font-size="12" font-weight="700" fill="#FFFFFF" text-anchor="middle">LLM01</text>
  <rect x="942" y="492" width="82" height="28" fill="#2563EB" rx="3"/>
  <text x="983" y="511" font-family="Courier New, monospace" font-size="12" font-weight="700" fill="#FFFFFF" text-anchor="middle">LLM02</text>
  <rect x="852" y="528" width="82" height="28" fill="#F59E0B" rx="3"/>
  <text x="893" y="547" font-family="Courier New, monospace" font-size="12" font-weight="700" fill="#FFFFFF" text-anchor="middle">LLM05</text>
  <rect x="942" y="528" width="82" height="28" fill="#7C3AED" rx="3"/>
  <text x="983" y="547" font-family="Courier New, monospace" font-size="12" font-weight="700" fill="#FFFFFF" text-anchor="middle">LLM06</text>
  <rect x="852" y="564" width="82" height="28" fill="#0A0A0A" rx="3"/>
  <text x="893" y="583" font-family="Courier New, monospace" font-size="12" font-weight="700" fill="#FFFFFF" text-anchor="middle">LLM08</text>
  <rect x="1248" y="498" width="220" height="38" fill="#22C55E" rx="4"/>
  <text x="1358" y="522" font-family="Arial, Helvetica, sans-serif" font-size="16" font-weight="700" fill="#FFFFFF" text-anchor="middle">✓ verified</text>
  <text x="1358" y="560" font-family="Courier New, monospace" font-size="11" fill="#2563EB" text-anchor="middle">chain_verified: True</text>
  <text x="1680" y="534" font-family="Arial Black, Arial, Helvetica, sans-serif" font-size="40" font-weight="900" fill="#2563EB" text-anchor="middle">22ms</text>
  <text x="1680" y="568" font-family="Courier New, monospace" font-size="12" fill="#2563EB" text-anchor="middle">self-scan</text>
  <rect x="340" y="478" width="2" height="130" fill="#93C5FD"/>
  <rect x="600" y="478" width="2" height="130" fill="#93C5FD"/>
  <rect x="840" y="478" width="2" height="130" fill="#93C5FD"/>
  <rect x="1180" y="478" width="2" height="130" fill="#93C5FD"/>
  <rect x="1560" y="478" width="2" height="130" fill="#93C5FD"/>

  <!-- Big badge / hero stat -->
  <rect x="60" y="638" width="1800" height="100" fill="#2563EB" rx="8"/>
  <text x="640" y="680" font-family="Arial Black, Arial, Helvetica, sans-serif" font-size="48" font-weight="900" fill="#FFFFFF" text-anchor="middle">25/25</text>
  <text x="640" y="718" font-family="Arial, Helvetica, sans-serif" font-size="18" fill="#FFFFFF" text-anchor="middle" opacity="0.9">Tests PASS</text>
  <rect x="840" y="654" width="3" height="70" fill="#FFFFFF" opacity="0.3"/>
  <text x="1200" y="676" font-family="Arial, Helvetica, sans-serif" font-size="18" font-weight="700" fill="#FFFFFF" text-anchor="middle">Scientific test suite · 7 categories</text>
  <text x="1200" y="706" font-family="Courier New, monospace" font-size="16" fill="#FFFFFF" text-anchor="middle" opacity="0.9">chain_verified: True on all 3 repos</text>
  <rect x="1560" y="654" width="3" height="70" fill="#FFFFFF" opacity="0.3"/>
  <text x="1700" y="686" font-family="Courier New, monospace" font-size="20" font-weight="700" fill="#FFFFFF" text-anchor="middle">100%</text>
  <text x="1700" y="710" font-family="Arial, Helvetica, sans-serif" font-size="14" fill="#FFFFFF" text-anchor="middle">pass rate</text>

  <!-- Stats summary row -->
  <rect x="60" y="756" width="580" height="72" fill="#F4F4F4" rx="6" stroke="#E0E0E0" stroke-width="1"/>
  <rect x="60" y="756" width="6" height="72" fill="#2563EB"/>
  <text x="86" y="790" font-family="Arial, Helvetica, sans-serif" font-size="16" font-weight="700" fill="#0A0A0A">Total files scanned: 51</text>
  <text x="86" y="814" font-family="Arial, Helvetica, sans-serif" font-size="14" fill="#5A5A5A">Across 3 real production repos</text>

  <rect x="670" y="756" width="580" height="72" fill="#F4F4F4" rx="6" stroke="#E0E0E0" stroke-width="1"/>
  <rect x="670" y="756" width="6" height="72" fill="#ED1C24"/>
  <text x="696" y="790" font-family="Arial, Helvetica, sans-serif" font-size="16" font-weight="700" fill="#0A0A0A">Total findings: 23</text>
  <text x="696" y="814" font-family="Arial, Helvetica, sans-serif" font-size="14" fill="#5A5A5A">Each mapped to OWASP LLM category</text>

  <rect x="1280" y="756" width="580" height="72" fill="#F4F4F4" rx="6" stroke="#E0E0E0" stroke-width="1"/>
  <rect x="1280" y="756" width="6" height="72" fill="#22C55E"/>
  <text x="1306" y="790" font-family="Arial, Helvetica, sans-serif" font-size="16" font-weight="700" fill="#0A0A0A">BobShell chains: 3/3 verified</text>
  <text x="1306" y="814" font-family="Arial, Helvetica, sans-serif" font-size="14" fill="#5A5A5A">Tamper-evident · ISO 42001 aligned</text>

  <!-- Source -->
  <text x="60" y="1055" font-family="Courier New, monospace" font-size="12" fill="#5A5A5A">Source: python src/test_forge.py → 25/25 PASS · python src/cli/__main__.py demo · All output in forge_output/ · github.com/SRKRZ23/forge</text>
</svg>
